<svg xmlns="http://www.w3.org/2000/svg" width="100" height="100" viewBox="0 0 100 100">
  <path d="M55.2,20.7539105 L55.2,91.689608 C55.2,94.4015427 52.891903,96.6000002 50,96.6000002 C47.1281193,96.6000002 44.8,94.4148196 44.8,91.689608 L44.8,20.7539105 L32.8769553,32.6769554 C30.846229,34.7076815 27.5537709,34.7076815 25.5230446,32.6769554 C23.4923185,30.6462291 23.4923185,27.3537711 25.5230446,25.3230447 L46.3230446,4.52304475 C48.353771,2.49231842 51.646229,2.49231842 53.6769554,4.52304475 L74.4769554,25.3230447 C76.5076815,27.3537711 76.5076815,30.6462291 74.4769554,32.6769554 C72.4462291,34.7076815 69.153771,34.7076815 67.1230447,32.6769554 L55.2,20.7539105 Z" transform="rotate(-180 50 49.8)"/>
</svg>
